# xmcd CD database file
#
# Track frame offsets:
#	300
#	19095
#	36387
#	56468
#	67452
#	84265
#	100575
#	121772
#	137087
#	158387
#	170904
#	192516
#	196264
#	216027
#
# Disc length: 3047 seconds
#
# Revision: 0
# Processed by: cddbd v1.5.2PL0 Copyright (c) Steve Scherf et al.
# Submitted via: CDex 1.72
#
DISCID=c20be30e
DTITLE=Paul Eddy - Blue Box
DYEAR=2007
DGENRE=Country
TTITLE0=Long, Long Road
TTITLE1=If You Look Twice
TTITLE2=I'm Here
TTITLE3=Could I Clare?
TTITLE4=Nothing Wrong With You
TTITLE5=The Tale Of Thomas Hymes
TTITLE6=After Happily Ever After
TTITLE7=All I Need Is You
TTITLE8=Ever In Me
TTITLE9=I'm A Passenger
TTITLE10=Only You
TTITLE11=Blue Box
TTITLE12=Love Will Find You
TTITLE13=It's In The Way
EXTD=YEAR: 2007
EXTT0=
EXTT1=
EXTT2=
EXTT3=
EXTT4=
EXTT5=
EXTT6=
EXTT7=
EXTT8=
EXTT9=
EXTT10=
EXTT11=
EXTT12=
EXTT13=
PLAYORDER=
